<svg version="1.1" id="Capa_1" xmlns="http://www.w3.org/2000/svg" xmlns:xlink="http://www.w3.org/1999/xlink" x="0px" y="0px" style="enable-background:new 0 0 1920 1080;" xml:space="preserve" viewBox="156.7 394.35 1606.62 291.28">
<style type="text/css">
	.st0{fill:#0F2328;}
	.st1{fill:#F05156;}
</style>
<g>
	<g>
		<g>
			<polygon class="st0" points="1205.69,637.94 1196.14,637.99 1196.15,418.4 1135.54,418.4 1135.54,599.72 1135.54,660.33      1196.15,660.33 1317.37,660.33 1317.37,608.09 1214.57,608.09    "/>
			<rect x="1369.33" y="417.89" class="st0" width="60.61" height="242.44"/>
			<polygon class="st0" points="1702.68,417.89 1702.89,588.13 1693.18,588.13 1684.31,554.74 1551.15,418.11 1551.15,417.89      1490.54,417.89 1490.54,660.33 1551.15,660.33 1551.15,490.62 1560.63,490.62 1569.5,523.75 1702.46,660.33 1702.68,660.11      1702.68,660.33 1763.29,660.33 1763.29,417.89    "/>
			<path class="st0" d="M1014.38,418.11l-170.08,0.06l0,242.44h60.61V554.19h9.48l8.88,29.9l91.16,0     c41.34,0,74.85-33.51,74.85-74.85v-16.28C1089.27,451.61,1055.73,418.09,1014.38,418.11z M1037.03,519.53     c0,6.81-5.52,12.32-12.32,12.32H904.91l-0.01-60.61h119.82c6.81,0,12.32,5.52,12.32,12.32V519.53z"/>
			<polygon class="st0" points="614.11,417.89 506.37,660.33 574.13,660.33 646.93,486.2 651.38,456.3 660.86,456.3 665.31,486.2      738.11,660.33 805.87,660.33 698.13,417.89    "/>
		</g>
	</g>
	<g>
		<path class="st1" d="M253.81,467.18h-97.09v48.55L180.99,540h96.74c13.6,0,24.62,11.02,24.62,24.62v96.75l24.36,24.26h48.46    v-97.09L253.81,467.18z"/>
		<path class="st1" d="M326.63,394.36h-97.09v48.55l24.27,24.27h96.74c13.6,0,24.62,11.02,24.62,24.62v96.75l24.36,24.26h48.46    v-97.09L326.63,394.36z"/>
	</g>
</g>
</svg>