<?xml version="1.0" standalone="no"?>
<!DOCTYPE svg PUBLIC "-//W3C//DTD SVG 20010904//EN"
 "http://www.w3.org/TR/2001/REC-SVG-20010904/DTD/svg10.dtd">
<svg version="1.0" xmlns="http://www.w3.org/2000/svg"
 width="350.000000pt" height="100.000000pt" viewBox="0 0 350.000000 100.000000"
 preserveAspectRatio="xMidYMid meet">

<g transform="translate(0.000000,100.000000) scale(0.100000,-0.100000)"
fill="#000000" stroke="none">
<path d="M1770 765 l0 -175 50 0 50 0 0 175 0 175 -50 0 -50 0 0 -175z"/>
<path d="M2170 910 c0 -29 1 -30 50 -30 49 0 50 1 50 30 0 29 -1 30 -50 30
-49 0 -50 -1 -50 -30z"/>
<path d="M3220 765 l0 -175 60 0 60 0 0 175 0 175 -60 0 -60 0 0 -175z"/>
<path d="M3380 765 l0 -175 60 0 60 0 0 175 0 175 -60 0 -60 0 0 -175z"/>
<path d="M850 760 l0 -170 50 0 50 0 0 123 c0 81 3 117 10 107 5 -8 26 -64 46
-123 l37 -108 50 3 50 3 37 107 c20 60 40 111 43 115 4 3 7 -46 7 -110 l0
-117 55 0 55 0 0 170 0 171 -86 -3 -87 -3 -37 -105 c-34 -94 -39 -102 -47 -80
-6 14 -23 62 -39 108 l-29 82 -82 0 -83 0 0 -170z"/>
<path d="M1950 890 c0 -36 -2 -40 -25 -40 -22 0 -25 -4 -25 -35 0 -31 3 -35
25 -35 25 0 25 -1 25 -78 0 -101 10 -112 103 -112 l67 0 0 30 c0 25 -4 30 -23
30 -35 0 -47 19 -47 77 l0 53 35 0 c33 0 35 2 35 35 0 33 -2 35 -35 35 -34 0
-35 1 -35 40 l0 40 -50 0 -50 0 0 -40z"/>
<path d="M1400 743 c1 -69 5 -114 13 -124 31 -41 100 -51 165 -24 24 10 38 12
40 5 2 -5 24 -10 48 -10 l44 0 0 130 0 130 -50 0 -50 0 0 -79 c0 -89 -12 -111
-59 -111 -43 0 -51 16 -51 107 l0 83 -50 0 -50 0 0 -107z"/>
<path d="M2170 720 l0 -130 50 0 50 0 0 130 0 130 -50 0 -50 0 0 -130z"/>
<path d="M618 754 c-129 -31 -218 -102 -218 -173 0 -49 11 -59 26 -22 24 56
138 102 292 117 l72 7 0 43 0 44 -57 -1 c-32 0 -84 -7 -115 -15z"/>
<path d="M5 486 c11 -111 118 -231 276 -309 387 -192 1008 -137 1264 112 l45
44 0 73 c0 41 -2 74 -4 74 -2 0 -14 -20 -26 -45 -29 -60 -105 -126 -202 -175
-161 -81 -325 -114 -563 -114 -238 0 -402 33 -563 114 -130 65 -203 141 -222
232 l-9 43 4 -49z"/>
<path d="M1766 500 c-57 -11 -86 -48 -86 -111 0 -61 11 -84 50 -104 37 -19
142 -20 179 -1 22 12 51 52 51 71 0 3 -19 5 -43 5 -31 0 -45 -5 -55 -20 -15
-24 -64 -27 -86 -4 -19 18 -21 85 -4 102 20 20 76 15 90 -8 10 -15 24 -20 55
-20 24 0 43 2 43 5 0 16 -32 66 -48 73 -27 15 -103 21 -146 12z"/>
<path d="M1990 385 l0 -115 30 0 30 0 0 115 0 115 -30 0 -30 0 0 -115z"/>
<path d="M2130 437 c-55 -28 -62 -108 -13 -147 47 -37 193 -21 193 21 0 7 -27
9 -71 7 -51 -2 -73 1 -76 10 -4 9 16 12 76 12 80 0 81 0 81 26 0 15 -12 38
-29 55 -25 25 -37 29 -83 29 -29 0 -64 -6 -78 -13z m110 -42 c11 -13 6 -15
-34 -15 -43 0 -55 7 -39 23 12 13 60 7 73 -8z"/>
<path d="M2385 438 c-21 -12 -35 -28 -35 -40 0 -12 65 -9 77 3 13 13 69 8 66
-6 -1 -5 -30 -13 -64 -17 -71 -8 -89 -20 -89 -59 0 -40 23 -48 134 -47 l96 1
0 66 c0 36 -4 71 -8 78 -19 31 -136 45 -177 21z m115 -96 c0 -16 -25 -32 -51
-32 -36 0 -46 18 -17 29 29 12 68 14 68 3z"/>
<path d="M2707 443 c-4 -3 -29 -5 -57 -4 l-50 1 0 -85 0 -85 35 0 35 0 0 49
c0 32 6 55 16 65 36 37 64 10 64 -61 0 -52 0 -53 30 -53 l30 0 0 73 c0 59 -4
77 -18 90 -18 17 -73 23 -85 10z"/>
<path d="M2894 441 c-66 -29 -71 -131 -7 -160 36 -17 135 -14 161 5 40 28 27
37 -46 30 -56 -6 -71 -4 -82 9 -11 13 -3 15 75 15 l88 0 -7 32 c-10 52 -37 71
-103 75 -32 1 -68 -1 -79 -6z m106 -46 c11 -13 5 -15 -40 -15 -45 0 -51 2 -40
15 7 8 25 15 40 15 15 0 33 -7 40 -15z"/>
<path d="M3192 434 c-12 -8 -22 -10 -22 -5 0 6 -13 11 -30 11 l-30 0 0 -85 0
-85 30 0 c28 0 30 2 30 40 0 49 27 80 70 80 27 0 30 3 30 30 0 26 -4 30 -28
30 -15 0 -38 -7 -50 -16z"/>
<path d="M3300 430 c-41 -41 -10 -90 56 -90 18 0 39 -3 48 -6 26 -10 18 -24
-14 -24 -16 0 -30 5 -30 10 0 6 -18 10 -40 10 -46 0 -54 -19 -18 -44 30 -22
146 -22 176 0 47 33 13 94 -53 94 -42 0 -76 11 -69 21 7 12 51 11 59 -1 10
-16 75 -12 75 4 0 46 -150 66 -190 26z"/>
</g>
</svg>
