<?xml version="1.0" encoding="utf-8"?>
<!-- Generator: Adobe Illustrator 26.2.1, SVG Export Plug-In . SVG Version: 6.00 Build 0)  -->
<svg version="1.1" id="Capa_1" xmlns="http://www.w3.org/2000/svg" xmlns:xlink="http://www.w3.org/1999/xlink" x="0px" y="0px"
	 viewBox="0 0 119 42" style="enable-background:new 0 0 119 42;" xml:space="preserve">
<style type="text/css">
	.st0{fill:#0741DD;}
</style>
<path class="st0" d="M74.3,11.7c1.1,0,2.1,0,3.2,0c0,0.1,0,0.3,0,0.4c0,1.9,0,3.8,0,5.8c0,0.1,0,0.2,0,0.4c0.1-0.1,0.2-0.1,0.2-0.2
	c0.9-1,2.1-1.5,3.4-1.6c1.1-0.1,2.2,0.1,3.2,0.6c1.6,0.9,2.8,2.3,3.3,4.1c0.5,1.9,0.4,3.7-0.6,5.4c-0.8,1.4-1.9,2.5-3.5,3
	c-1.2,0.4-2.4,0.4-3.6,0c-0.8-0.2-1.5-0.7-2.1-1.3c-0.1-0.1-0.1-0.2-0.3-0.3c-0.1,0.5,0,1,0,1.5c-1.1,0-2.1,0-3.2,0
	C74.3,23.7,74.3,17.7,74.3,11.7z M81.2,26.9c1,0,2-0.4,2.7-1.4c0.5-0.7,0.7-1.6,0.7-2.5c0-0.8-0.3-1.5-0.8-2.1
	c-0.8-1-1.9-1.4-3.1-1.2c-1.4,0.1-2.6,1.1-3,2.5c-0.1,0.5-0.2,1-0.1,1.6C77.8,25.6,79.2,26.9,81.2,26.9z"/>
<path class="st0" d="M90.3,11.7c1,0,2.1,0,3.2,0c0,0.3,0,0.7,0,1.1c0,0.4,0,0.7,0,1.1c0,0.4,0,0.7,0,1.1c0,0.4,0,0.7,0,1.1
	c0,0.4,0,0.7,0,1.1c0,0.4,0,0.7,0,1.1c0.1-0.1,0.2-0.2,0.2-0.2c0.9-1,2-1.5,3.4-1.6c1.1-0.1,2.2,0.1,3.2,0.6c1.9,1,3,2.6,3.4,4.8
	c0.3,1.4,0.2,2.9-0.4,4.2c-0.7,1.6-1.8,2.8-3.5,3.5c-1.6,0.6-3.2,0.6-4.7-0.2c-0.5-0.2-0.9-0.6-1.3-1c-0.1-0.1-0.1-0.1-0.3-0.3
	c0,0.5,0,1,0,1.4c-0.3,0.1-2.6,0.1-3.2,0C90.3,29.4,90.3,12.1,90.3,11.7z M100.6,23.2c0-0.9-0.3-1.8-1-2.5c-0.7-0.7-1.6-1.1-2.6-1
	c-0.9,0-1.7,0.3-2.4,0.9c-1.3,1.2-1.4,3.3-0.7,4.6c0.6,1.1,1.6,1.7,2.9,1.8c0.9,0.1,1.8-0.2,2.5-0.8
	C100.2,25.4,100.6,24.4,100.6,23.2z"/>
<path class="st0" d="M57.4,15.6c-1,0.6-2,1.2-3,1.7c0-0.1-0.1-0.1-0.1-0.1c-0.8-1.3-1.9-2-3.3-2.3c-1.3-0.3-2.6-0.2-3.8,0.4
	c-1.4,0.7-2.4,1.8-2.9,3.3c-0.4,1.4-0.5,2.8,0,4.2c0.7,2.2,2.3,3.4,4.6,3.7c1.1,0.1,2.2,0,3.2-0.4c0.9-0.4,1.7-1,2.2-1.9
	c0-0.1,0.1-0.1,0.1-0.2c1,0.6,2,1.1,3,1.7c-0.1,0.1-0.1,0.2-0.2,0.3c-1.1,1.7-2.7,2.9-4.7,3.5c-2.6,0.8-5.1,0.6-7.4-0.7
	c-2.5-1.4-4-3.6-4.5-6.5c-0.3-1.8-0.2-3.6,0.6-5.3c1.3-3,3.5-4.8,6.7-5.5c2-0.4,4-0.2,5.8,0.7c1.4,0.7,2.6,1.7,3.5,3
	C57.2,15.3,57.3,15.4,57.4,15.6z"/>
<path class="st0" d="M119,23.3c0,3.8-3,6.8-6.8,6.7c-3.7,0-6.7-3.1-6.6-6.9c0-3.7,3.1-6.7,6.8-6.7C115.9,16.5,119,19.5,119,23.3z
	 M115.7,23.3c0-0.8-0.2-1.5-0.6-2.1c-0.8-1.1-1.8-1.5-3.1-1.5c-1.2,0.1-2.1,0.6-2.8,1.7c-0.4,0.7-0.5,1.5-0.4,2.3
	c0.3,2.8,3.2,3.9,5.2,2.7C115.2,25.7,115.7,24.6,115.7,23.3z"/>
<path class="st0" d="M62.7,16.9c0,0.2,0,0.3,0,0.4c0,2.3,0,4.6,0,6.8c0,0.3,0,0.7,0.1,1c0.2,1.1,1,1.8,2.2,1.8c0.4,0,0.8,0,1.1-0.1
	c1-0.2,1.6-0.9,1.8-1.9c0.1-0.4,0.1-0.9,0.1-1.3c0-2.1,0-4.2,0-6.4c0-0.1,0-0.3,0-0.4c0.2-0.1,2.7-0.1,3.2,0
	c0.1,0.2,0.1,12.3,0,12.7c-0.2,0.1-2.8,0.1-3.2,0c0-0.4,0-0.9,0-1.4c-0.1,0.1-0.2,0.2-0.2,0.2c-0.7,0.9-1.6,1.3-2.8,1.5
	c-0.8,0.1-1.6,0.1-2.4-0.2c-1.6-0.5-2.6-1.7-3.1-3.3c-0.1-0.5-0.2-1.1-0.2-1.6c0-2.6,0-5.1,0-7.7c0-0.1,0-0.2,0-0.3
	C60.5,16.9,61.6,16.9,62.7,16.9z"/>
<path class="st0" d="M16.9,27.9v13.5l16.4-7.2V20.8L16.9,27.9z"/>
<path class="st0" d="M16.1,0.1L0,7.2v13.5l16.1-7.2V0.1z"/>
<path class="st0" d="M16.9,0v13.5l10,4.1V4.3L16.9,0z"/>
<path class="st0" d="M16.1,27.9L0,20.8v13.5l16.1,7.2V27.9z"/>
</svg>
