<svg xmlns="http://www.w3.org/2000/svg" xmlns:xlink="http://www.w3.org/1999/xlink" width="171.275" height="56.42" viewBox="0 0 171.275 56.42"><defs><clipPath id="a"><rect width="171.275" height="56.42" fill="none"/></clipPath></defs><g clip-path="url(#a)"><path d="M212.687,10.023c0-1.081.778-1.6,1.826-1.556a1.756,1.756,0,0,1,1.9,1.567h2.918c-.173-2.388-2.032-3.772-4.745-3.772-2.735,0-4.669,1.437-4.669,3.837-.021,4.8,6.809,3.069,6.809,5.933,0,.951-.735,1.621-1.989,1.621a1.819,1.819,0,0,1-2.01-1.773h-2.853c.043,2.507,2.172,3.956,4.918,3.956,3.026,0,4.691-1.881,4.691-3.967,0-4.669-6.8-3.188-6.8-5.847" transform="translate(-134.815 -4.022)" fill="#3b4394"/><path d="M249.543,14.13v1.5a4.146,4.146,0,0,0-3.469-1.664c-2.681,0-4.8,2.108-4.8,5.382s2.118,5.469,4.777,5.469a4.146,4.146,0,0,0,3.491-1.707v1.535h2.68V14.13Zm-2.789,8.355a2.867,2.867,0,0,1-2.767-3.134,2.8,2.8,0,0,1,2.767-3.048,2.825,2.825,0,0,1,2.789,3.091,2.831,2.831,0,0,1-2.789,3.091" transform="translate(-154.984 -8.972)" fill="#3b4394"/><rect width="2.659" height="13.848" transform="translate(99.845 1.826)" fill="#3b4394"/><path d="M302.465,19.166a4.93,4.93,0,0,0-5.177-5.2,5.05,5.05,0,0,0-5.274,5.426,5.09,5.09,0,0,0,5.274,5.426,4.9,4.9,0,0,0,4.918-3.469h-2.864a2.171,2.171,0,0,1-2.108,1.265,2.455,2.455,0,0,1-2.529-2.421h7.685a5.55,5.55,0,0,0,.076-1.027m-7.738-.756a2.433,2.433,0,0,1,2.486-2.259,2.339,2.339,0,0,1,2.507,2.259Z" transform="translate(-187.576 -8.972)" fill="#3b4394"/><path d="M327.905,17.081c0-.616.508-1,1.492-1a1.564,1.564,0,0,1,1.772,1.362h2.54c-.151-2.086-1.686-3.469-4.237-3.469-2.594,0-4.15,1.4-4.15,3.145,0,3.858,5.933,2.659,5.933,4.539,0,.605-.562,1.081-1.61,1.081a1.733,1.733,0,0,1-1.892-1.405h-2.68c.119,1.956,1.956,3.491,4.593,3.491,2.561,0,4.139-1.362,4.139-3.167-.075-3.859-5.9-2.659-5.9-4.572" transform="translate(-208.812 -8.972)" fill="#3b4394"/><path d="M217.587,64.385A3.82,3.82,0,0,0,220.6,60.57c0-2.216-1.6-4.053-4.788-4.053h-4.972v13.24H213.5V64.6h1.254l2.918,5.155h3.08Zm-1.87-1.783H213.5V58.711h2.216c1.481,0,2.151.746,2.151,1.924s-.67,1.967-2.151,1.967" transform="translate(-135.436 -36.304)" fill="#3b4394"/><path d="M253.419,68.878a4.93,4.93,0,0,0-5.177-5.2,5.05,5.05,0,0,0-5.274,5.426,5.084,5.084,0,0,0,5.274,5.426,4.887,4.887,0,0,0,4.918-3.469h-2.864a2.171,2.171,0,0,1-2.108,1.264,2.454,2.454,0,0,1-2.529-2.421h7.684a5.521,5.521,0,0,0,.076-1.027m-7.739-.756a2.432,2.432,0,0,1,2.486-2.259,2.339,2.339,0,0,1,2.507,2.259Z" transform="translate(-156.07 -40.905)" fill="#3b4394"/><path d="M283.974,63.852v1.492a4.146,4.146,0,0,0-3.47-1.664c-2.681,0-4.81,2.108-4.81,5.382s2.129,5.469,4.788,5.469a4.147,4.147,0,0,0,3.491-1.707v1.535h2.68V63.852ZM281.186,72.2a2.867,2.867,0,0,1-2.767-3.134,2.8,2.8,0,0,1,2.767-3.048,3.108,3.108,0,0,1,0,6.182" transform="translate(-177.093 -40.904)" fill="#3b4394"/><path d="M319.944,54.28v4.993a4.272,4.272,0,0,0-3.437-1.632c-2.691,0-4.82,2.108-4.82,5.382s2.129,5.469,4.809,5.469a3.963,3.963,0,0,0,3.448-1.729V68.32h2.7V54.28Zm-2.767,11.878a2.875,2.875,0,0,1-2.777-3.134,2.8,2.8,0,0,1,2.777-3.048,3.108,3.108,0,0,1,0,6.182" transform="translate(-200.213 -34.867)" fill="#3b4394"/><path d="M354.649,64.163,351.893,71.5l-2.713-7.339H346.2l4.215,10.246-2.281,5.231h2.832l6.506-15.477Z" transform="translate(-222.381 -41.215)" fill="#3b4394"/><path d="M222.289,106.228l-4.215,9.846-4.215-9.846h-3.016v13.24H213.5v-8.614l3.567,8.614h2.01l3.556-8.614v8.614h2.659v-13.24Z" transform="translate(-135.435 -68.236)" fill="#3b4394"/><path d="M264.935,113.564v1.492a4.181,4.181,0,0,0-3.48-1.664c-2.669,0-4.8,2.108-4.8,5.393s2.129,5.458,4.777,5.458a4.141,4.141,0,0,0,3.5-1.708v1.535H267.6V113.564Zm-2.8,8.344a2.87,2.87,0,0,1-2.767-3.124,2.8,2.8,0,0,1,2.767-3.059,3.106,3.106,0,0,1,0,6.182" transform="translate(-164.864 -72.837)" fill="#3b4394"/><path d="M297.211,115.234V113.6h-2.659v10.505h2.659v-5.231c0-2.032.951-2.637,2.518-2.637h.7v-2.788a3.636,3.636,0,0,0-3.221,1.783" transform="translate(-189.206 -72.876)" fill="#3b4394"/><path d="M321.012,112.8l4.637-5.274H322.19l-3.534,4.453v-7.987h-2.648v14.039h2.648v-4.475l3.578,4.475h3.448Z" transform="translate(-202.989 -66.8)" fill="#3b4394"/><path d="M355.541,118.589a4.938,4.938,0,0,0-5.188-5.2,5.428,5.428,0,0,0,0,10.851,4.878,4.878,0,0,0,4.918-3.469h-2.864a2.178,2.178,0,0,1-2.108,1.275,2.455,2.455,0,0,1-2.518-2.432h7.684a6.574,6.574,0,0,0,.076-1.027m-7.749-.756a2.447,2.447,0,0,1,2.486-2.259,2.333,2.333,0,0,1,2.507,2.259Z" transform="translate(-221.662 -72.837)" fill="#3b4394"/><path d="M383.694,111.379V109.2h-2.356v-2.6h-2.669v2.6h-1.254v2.183h1.254v5.058c0,2.41,1.34,3.264,3.361,3.264h1.664v-2.237h-1.232c-.832,0-1.124-.3-1.124-1.005v-5.08Z" transform="translate(-242.433 -68.469)" fill="#3b4394"/><path d="M399.827,116.537h2.648V106.032h-2.648Zm1.34-14.872a1.558,1.558,0,1,0,1.632,1.556,1.555,1.555,0,0,0-1.632-1.556" transform="translate(-256.642 -65.305)" fill="#3b4394"/><path d="M420.924,113.451a3.9,3.9,0,0,0-3.167,1.459V113.6H415.1v10.506h2.659v-5.8a2.278,2.278,0,0,1,2.367-2.594c1.405,0,2.334.908,2.334,2.594v5.8h2.659v-6.161c0-2.907-1.74-4.5-4.193-4.5" transform="translate(-266.64 -72.876)" fill="#3b4394"/><path d="M456.548,113.564v1.492a4.108,4.108,0,0,0-3.469-1.664c-2.681,0-4.8,2.108-4.8,5.393s2.118,5.458,4.8,5.458a4.119,4.119,0,0,0,3.469-1.73v1.643a2.713,2.713,0,0,1-5.177,1.21h-2.637c.259,2.41,2.334,3.891,5.3,3.891a4.806,4.806,0,0,0,5.2-5.1V113.564Zm-2.789,8.344a2.864,2.864,0,0,1-2.767-3.124,2.8,2.8,0,0,1,2.767-3.059,3.108,3.108,0,0,1,0,6.182" transform="translate(-287.954 -72.837)" fill="#3b4394"/><path d="M51.182,5.111a7.97,7.97,0,0,0-7.965,7.961V32.9h4.374V13.14A3.663,3.663,0,0,1,51.25,9.481H78.488l3.866-4.37Zm41.941,7.067L88.8,16.967V47.038a3.657,3.657,0,0,1-3.655,3.656H85v4.374h.215a7.972,7.972,0,0,0,7.961-7.961V13.072a7.369,7.369,0,0,0-.054-.894" transform="translate(-27.761 -3.283)" fill="#00c1de"/><path d="M4.676,98.781a1.58,1.58,0,0,1,1.835-1.628,1.933,1.933,0,0,1,2.072,1.864h4.725c-.178-3.423-2.811-5.367-6.718-5.367-3.759,0-6.54,1.884-6.54,5.287C0,105.3,8.967,103.506,8.967,106.83c0,1.046-.819,1.687-2.091,1.687a2.056,2.056,0,0,1-2.229-2.042H0c.128,3.63,3.147,5.544,7,5.544,4.183,0,6.541-2.506,6.541-5.515,0-6.008-8.869-4.607-8.869-7.724" transform="translate(0 -60.157)" fill="#3b4394"/><path d="M53.156,105.2a5.22,5.22,0,0,0,3.986-5.189c0-3.117-2.19-5.643-6.59-5.643h-7.33V112.3h4.37v-6.777h1.046l3.729,6.777H57.3ZM50.3,102.438h-2.7V97.988h2.7c1.638,0,2.407.868,2.407,2.2,0,1.411-.769,2.249-2.407,2.249" transform="translate(-27.764 -60.618)" fill="#3b4394"/><path d="M102.812,94.368l-4.982,12.41L92.8,94.368H87.63V112.3H92V101.52L96.045,112.3h3.522l4.015-10.762V112.3h4.37V94.368Z" transform="translate(-56.289 -60.618)" fill="#3b4394"/><path d="M149.592,95.57a1.87,1.87,0,1,1,1.874,1.929,1.829,1.829,0,0,1-1.874-1.929m.4,0a1.484,1.484,0,1,0,1.477-1.553,1.433,1.433,0,0,0-1.477,1.553m1.874.207.517.781-.582.009-.443-.753H151.2v.753h-.48V94.545h.886a.623.623,0,0,1,.693.631.6.6,0,0,1-.434.6m-.665-.79v.423h.379a.213.213,0,0,0,.24-.216c0-.151-.111-.207-.24-.207Z" transform="translate(-96.091 -60.157)" fill="#3b4394"/><path d="M133.644,3.234,132.3,4.721l-3.019,3.344-14.07,15.593-8.244-8.244,3.1-3.1,5.014,5.011L124.928,6.2l3.562-4.024L130.415,0Z" transform="translate(-68.711 0)" fill="#00c1de"/></g></svg>