<svg xmlns="http://www.w3.org/2000/svg" xmlns:xlink="http://www.w3.org/1999/xlink" width="208.215" height="60" viewBox="0 0 208.215 60"><defs><clipPath id="a"><rect width="208.215" height="60" fill="#cbcaf3"/></clipPath></defs><g transform="translate(0 0)"><g transform="translate(0 0)" clip-path="url(#a)"><path d="M8.687,47.153H.612V16.566H8.687ZM9.238,7.144a4.523,4.523,0,0,1-1.345,3.272A4.364,4.364,0,0,1,4.65,11.8,4.575,4.575,0,0,1,1.375,10.48,4.205,4.205,0,0,1,0,7.328,4.743,4.743,0,0,1,1.283,3.872,4.575,4.575,0,0,1,4.711,2.556,4.335,4.335,0,0,1,7.953,3.872,4.5,4.5,0,0,1,9.238,7.144" transform="translate(0 1.57)" fill="#cbcaf3"/><path d="M30.741,26.44a13.827,13.827,0,0,0-2-7.922A6.268,6.268,0,0,0,23.3,15.612a6.618,6.618,0,0,0-5.712,3.121,14.438,14.438,0,0,0-2.146,8.319A13.764,13.764,0,0,0,17.531,35.1a6.612,6.612,0,0,0,5.713,2.967q3.87,0,5.923-4.038a16.988,16.988,0,0,0,1.572-7.588m8.624-.305a17.531,17.531,0,0,1-4.149,11.931,13.243,13.243,0,0,1-10.434,4.771q-5.19,0-9.335-4.832V53.378H7.493V11.513h7.954V15.98a12.709,12.709,0,0,1,10.432-5.2,12.39,12.39,0,0,1,9.735,4.251q3.749,4.255,3.75,11.1" transform="translate(4.604 6.623)" fill="#cbcaf3"/><path d="M48.478,33.66a8.071,8.071,0,0,1-3.243,6.609,12.9,12.9,0,0,1-8.258,2.567,16.043,16.043,0,0,1-10.156-3.547L29.451,35Q33.062,38.063,36,38.064a4.724,4.724,0,0,0,3.151-1.009A3.391,3.391,0,0,0,40.34,34.33a3.981,3.981,0,0,0-.977-2.63,27.278,27.278,0,0,0-4.283-3.548,31.518,31.518,0,0,1-4.467-3.671,7.828,7.828,0,0,1-2.079-5.261,7.458,7.458,0,0,1,2.935-6.088,11.661,11.661,0,0,1,7.525-2.354,16.069,16.069,0,0,1,8.749,2.509l-2.372,3.855a8.752,8.752,0,0,0-5.111-1.711,4.2,4.2,0,0,0-2.709.857,2.639,2.639,0,0,0-1.066,2.139q0,1.836,4.2,4.956a35.437,35.437,0,0,1,6.237,5.473,7.584,7.584,0,0,1,1.553,4.8" transform="translate(16.479 6.621)" fill="#cbcaf3"/><path d="M12.124,7.865h4.181v6.672a3.965,3.965,0,0,1-1.56.857,6.534,6.534,0,0,1-1.929.292,5.182,5.182,0,0,1-2.2-.455,4.241,4.241,0,0,1-1.679-1.419,7.259,7.259,0,0,1-1.072-2.438,14.3,14.3,0,0,1-.378-3.532,12.415,12.415,0,0,1,.455-3.607A7.054,7.054,0,0,1,9.168,1.81,4.758,4.758,0,0,1,10.923.433,5.014,5.014,0,0,1,12.949,0a9.12,9.12,0,0,1,1.745.14A5.213,5.213,0,0,1,15.9.52l-.389,1.474a3.748,3.748,0,0,0-1.028-.368A6.461,6.461,0,0,0,13.1,1.495a3.4,3.4,0,0,0-1.453.324A3.341,3.341,0,0,0,10.4,2.891a5.807,5.807,0,0,0-.878,1.962A11.751,11.751,0,0,0,9.2,7.843a8.818,8.818,0,0,0,1.028,4.8,3.218,3.218,0,0,0,2.827,1.55,3.1,3.1,0,0,0,1.865-.536V9.273l-2.8-.425V7.865Z" transform="translate(4.601 -0.001)" fill="#cbcaf3"/><path d="M16,7.377h1.3a2.542,2.542,0,0,0,1.95-.76A3.284,3.284,0,0,0,19.963,4.3a3.158,3.158,0,0,0-.6-1.973,2.082,2.082,0,0,0-1.765-.78c-.291,0-.589.011-.9.034a3.82,3.82,0,0,0-.7.1Zm-1.626-7A10.75,10.75,0,0,1,15.943.13c.57-.05,1.095-.076,1.571-.076a6.035,6.035,0,0,1,1.6.207,3.341,3.341,0,0,1,1.322.693,3.436,3.436,0,0,1,.9,1.279,5.086,5.086,0,0,1,.336,1.983A4.98,4.98,0,0,1,20.927,7.1a3.6,3.6,0,0,1-1.983,1.453l.823.8L22.759,15.4H20.873l-3.25-6.609L16,8.462V15.4H14.374V.378Z" transform="translate(8.83 0.033)" fill="#cbcaf3"/><path d="M27.769.161h1.56V10.322A5.973,5.973,0,0,1,28.256,14.3a3.835,3.835,0,0,1-3.043,1.224,4.25,4.25,0,0,1-3.348-1.191,5.425,5.425,0,0,1-1.051-3.66V.164h1.624V9.828A10.916,10.916,0,0,0,22.59,11.8a3.34,3.34,0,0,0,.5,1.3,1.968,1.968,0,0,0,.867.715,3.327,3.327,0,0,0,1.279.218,2.066,2.066,0,0,0,1.983-1,6.953,6.953,0,0,0,.552-3.206Z" transform="translate(12.789 0.098)" fill="#cbcaf3"/><path d="M30.9,1.547c-.289,0-.567.011-.835.034a3.57,3.57,0,0,0-.639.1V8.134a.723.723,0,0,0,.271.053c.123.008.249.015.379.021s.255.011.378.011h.271A4.505,4.505,0,0,0,31.9,8.068a2.354,2.354,0,0,0,1-.552,2.913,2.913,0,0,0,.7-1.083,4.707,4.707,0,0,0,.271-1.723,4.048,4.048,0,0,0-.249-1.518,2.682,2.682,0,0,0-.651-.973,2.263,2.263,0,0,0-.943-.52A4.133,4.133,0,0,0,30.9,1.547M27.806.378A7.671,7.671,0,0,1,29.28.119C29.8.075,30.312.054,30.817.054a7.642,7.642,0,0,1,1.711.194,3.946,3.946,0,0,1,1.527.717,3.711,3.711,0,0,1,1.1,1.429,5.51,5.51,0,0,1,.423,2.318,5.944,5.944,0,0,1-.4,2.317,4.282,4.282,0,0,1-1.061,1.55,4.08,4.08,0,0,1-1.518.867,5.813,5.813,0,0,1-1.765.271h-.281c-.131,0-.268,0-.413-.01s-.284-.018-.421-.034a2.11,2.11,0,0,1-.292-.044v5.763H27.806Z" transform="translate(17.085 0.033)" fill="#cbcaf3"/><path d="M35.113,7.843a15.325,15.325,0,0,0,.184,2.426,7.99,7.99,0,0,0,.573,2.016,3.787,3.787,0,0,0,1.019,1.385,2.3,2.3,0,0,0,1.516.52,2.677,2.677,0,0,0,2.472-1.56,10.457,10.457,0,0,0,.843-4.788,14.981,14.981,0,0,0-.184-2.4,8.1,8.1,0,0,0-.575-2.026,3.735,3.735,0,0,0-1.017-1.4,2.332,2.332,0,0,0-1.539-.52,2.658,2.658,0,0,0-2.447,1.56,10.429,10.429,0,0,0-.844,4.787m-1.711,0a11.225,11.225,0,0,1,1.235-5.849A4.128,4.128,0,0,1,38.407,0a4.539,4.539,0,0,1,2.318.554,4.265,4.265,0,0,1,1.55,1.569,7.817,7.817,0,0,1,.877,2.472,17.033,17.033,0,0,1,.283,3.248,11.152,11.152,0,0,1-1.246,5.849,4.153,4.153,0,0,1-3.781,1.994,4.489,4.489,0,0,1-2.3-.554,4.342,4.342,0,0,1-1.561-1.569,7.5,7.5,0,0,1-.877-2.472A17.73,17.73,0,0,1,33.4,7.843" transform="translate(20.523 -0.001)" fill="#cbcaf3"/><path d="M42.155,16.92h6.256v1.388H43.665v4.767h4.364v1.388H43.665v5.148h4.848V31H42.157V16.92Z" transform="translate(25.901 10.395)" fill="#cbcaf3"/><path d="M47.256,29.22a4.393,4.393,0,0,0,1.075.494,5.007,5.007,0,0,0,1.579.231,2.881,2.881,0,0,0,1.832-.554,2.076,2.076,0,0,0,.7-1.739,2.335,2.335,0,0,0-.4-1.367,5.234,5.234,0,0,0-1.006-1.075c-.4-.328-.835-.649-1.3-.965a10.4,10.4,0,0,1-1.3-1.046,5.263,5.263,0,0,1-1.006-1.317,3.715,3.715,0,0,1-.4-1.789,3.019,3.019,0,0,1,1.017-2.506,4.107,4.107,0,0,1,2.644-.814,8.068,8.068,0,0,1,1.789.179,4.589,4.589,0,0,1,1.266.463l-.483,1.327a4.019,4.019,0,0,0-1.035-.4,6.1,6.1,0,0,0-1.558-.181,2.163,2.163,0,0,0-1.61.534,1.831,1.831,0,0,0-.523,1.337,2.036,2.036,0,0,0,.4,1.248A5.521,5.521,0,0,0,49.949,22.3c.4.321.835.646,1.3.977a10.1,10.1,0,0,1,1.3,1.1,5.615,5.615,0,0,1,1.006,1.367,3.833,3.833,0,0,1,.4,1.81,3.678,3.678,0,0,1-1.045,2.777,4.1,4.1,0,0,1-2.958,1.006,7.4,7.4,0,0,1-1.981-.221,5.06,5.06,0,0,1-1.237-.5Z" transform="translate(28.714 10.305)" fill="#cbcaf3"/><path d="M54.946,18.208q-.4,0-.775.029a3.475,3.475,0,0,0-.594.09v5.994a.7.7,0,0,0,.252.05l.354.021c.119.006.237.01.35.01h.252a4.177,4.177,0,0,0,1.087-.14,2.163,2.163,0,0,0,.923-.513,2.693,2.693,0,0,0,.654-1.006,4.392,4.392,0,0,0,.252-1.6,3.766,3.766,0,0,0-.231-1.406,2.509,2.509,0,0,0-.6-.906,2.128,2.128,0,0,0-.875-.483,3.856,3.856,0,0,0-1.045-.14m-2.875-1.087a7.386,7.386,0,0,1,1.367-.242c.483-.039.959-.06,1.429-.06A7.021,7.021,0,0,1,56.456,17a3.657,3.657,0,0,1,1.417.664A3.46,3.46,0,0,1,58.9,18.991a5.123,5.123,0,0,1,.392,2.152,5.583,5.583,0,0,1-.371,2.154,3.972,3.972,0,0,1-.985,1.438,3.768,3.768,0,0,1-1.408.8,5.447,5.447,0,0,1-1.64.252h-.26c-.119,0-.249,0-.383-.01s-.265-.018-.392-.031a2.256,2.256,0,0,1-.271-.04v5.35H52.074V17.122Z" transform="translate(31.994 10.334)" fill="#cbcaf3"/><path d="M57.309,16.92h6.256v1.388H58.818v4.767h4.364v1.388H58.818v5.148h4.848V31H57.309Z" transform="translate(35.212 10.395)" fill="#cbcaf3"/><path d="M69.415,30.548a3.03,3.03,0,0,1-1.267.6,6.923,6.923,0,0,1-1.608.181,4.778,4.778,0,0,1-1.971-.4,3.925,3.925,0,0,1-1.56-1.277,6.491,6.491,0,0,1-1.015-2.262,13.345,13.345,0,0,1-.363-3.34,12.1,12.1,0,0,1,.412-3.4,6.677,6.677,0,0,1,1.1-2.252,4.014,4.014,0,0,1,1.579-1.248,4.632,4.632,0,0,1,1.84-.383,7.6,7.6,0,0,1,1.6.14,6.392,6.392,0,0,1,1.1.342l-.362,1.367a3.6,3.6,0,0,0-.944-.342,5.879,5.879,0,0,0-1.248-.119,2.938,2.938,0,0,0-1.327.312,3.013,3.013,0,0,0-1.106,1.006A5.516,5.516,0,0,0,63.5,21.3a11.569,11.569,0,0,0-.281,2.754,7.879,7.879,0,0,0,1.006,4.415A3.093,3.093,0,0,0,66.9,29.946a3.679,3.679,0,0,0,1.227-.192,3.816,3.816,0,0,0,.923-.454Z" transform="translate(37.867 10.304)" fill="#cbcaf3"/><rect width="1.508" height="14.079" transform="translate(109.434 27.316)" fill="#cbcaf3"/><path d="M72.4,25.836h3.208l-1.222-4.372-.373-2.125h-.04L73.581,21.5Zm3.568,1.306H72l-1.122,3.942H69.385l4.244-14.3h.825l4.244,14.3h-1.59Z" transform="translate(42.632 10.311)" fill="#cbcaf3"/><path d="M82.411,31H75.632V16.921H77.14V29.614h5.269V31Z" transform="translate(46.47 10.396)" fill="#cbcaf3"/><rect width="1.508" height="14.079" transform="translate(130.137 27.316)" fill="#cbcaf3"/><path d="M83.081,29.22a4.393,4.393,0,0,0,1.075.494,5,5,0,0,0,1.579.231,2.881,2.881,0,0,0,1.832-.554,2.071,2.071,0,0,0,.7-1.739,2.334,2.334,0,0,0-.4-1.367,5.234,5.234,0,0,0-1.006-1.075q-.605-.492-1.3-.965a10.279,10.279,0,0,1-1.3-1.046,5.263,5.263,0,0,1-1.006-1.317,3.716,3.716,0,0,1-.4-1.789,3.019,3.019,0,0,1,1.017-2.506,4.107,4.107,0,0,1,2.644-.814,8.068,8.068,0,0,1,1.789.179,4.589,4.589,0,0,1,1.266.463l-.483,1.327a4.019,4.019,0,0,0-1.035-.4,6.1,6.1,0,0,0-1.558-.181,2.16,2.16,0,0,0-1.61.534,1.831,1.831,0,0,0-.523,1.337,2.036,2.036,0,0,0,.4,1.248A5.521,5.521,0,0,0,85.774,22.3q.605.482,1.3.977a10.1,10.1,0,0,1,1.3,1.1,5.615,5.615,0,0,1,1.006,1.367,3.853,3.853,0,0,1,.4,1.81,3.678,3.678,0,0,1-1.045,2.777,4.1,4.1,0,0,1-2.958,1.006,7.4,7.4,0,0,1-1.981-.221,5.06,5.06,0,0,1-1.237-.5Z" transform="translate(50.725 10.305)" fill="#cbcaf3"/><path d="M95.7,18.308H92.24V31H90.732V18.308H87.274V16.92H95.7v1.388Z" transform="translate(53.623 10.395)" fill="#cbcaf3"/><path d="M94.674,25.836h3.209l-1.225-4.372-.368-2.125h-.042L95.858,21.5Zm3.571,1.306h-3.97l-1.122,3.942H91.665l4.244-14.3h.825l4.244,14.3H99.39Z" transform="translate(56.321 10.311)" fill="#cbcaf3"/><path d="M98.43,29.22a4.393,4.393,0,0,0,1.075.494,5.007,5.007,0,0,0,1.579.231,2.868,2.868,0,0,0,1.829-.554,2.072,2.072,0,0,0,.7-1.739,2.336,2.336,0,0,0-.4-1.367,5.147,5.147,0,0,0-1.006-1.075c-.4-.328-.836-.649-1.3-.965a10.278,10.278,0,0,1-1.3-1.046,5.188,5.188,0,0,1-1.006-1.317,3.716,3.716,0,0,1-.4-1.789,3.019,3.019,0,0,1,1.017-2.506,4.105,4.105,0,0,1,2.643-.814,8.073,8.073,0,0,1,1.79.179,4.609,4.609,0,0,1,1.266.463l-.483,1.327a4.067,4.067,0,0,0-1.035-.4,6.1,6.1,0,0,0-1.56-.181,2.156,2.156,0,0,0-1.608.534,1.831,1.831,0,0,0-.523,1.337,2.036,2.036,0,0,0,.4,1.248,5.521,5.521,0,0,0,1.006,1.027q.6.482,1.3.977a9.88,9.88,0,0,1,1.3,1.1,5.573,5.573,0,0,1,1.006,1.367,3.834,3.834,0,0,1,.4,1.81,3.673,3.673,0,0,1-1.046,2.777,4.1,4.1,0,0,1-2.956,1.006,7.423,7.423,0,0,1-1.983-.221,5.033,5.033,0,0,1-1.237-.5Z" transform="translate(60.154 10.305)" fill="#cbcaf3"/><path d="M105.122,16.92h6.256v1.388h-4.746v4.767H111v1.388h-4.365v5.148h4.848V31h-6.358Z" transform="translate(64.589 10.395)" fill="#cbcaf3"/><path d="M112.24,22.154l-.865-2.213h-.061l.223,2.213v8.929h-1.45v-14.3h.906l5.211,9.131.825,2.112h.079l-.223-2.112V17h1.448V31.3h-.925Z" transform="translate(67.639 10.311)" fill="#cbcaf3"/><path d="M119.8,23.62H121a2.372,2.372,0,0,0,1.81-.7,3.037,3.037,0,0,0,.664-2.154,2.93,2.93,0,0,0-.554-1.831,1.933,1.933,0,0,0-1.639-.723c-.268,0-.547.01-.835.029a3.673,3.673,0,0,0-.654.09Zm-1.508-6.5a9.815,9.815,0,0,1,1.458-.231q.794-.07,1.459-.071a5.664,5.664,0,0,1,1.488.191,3.086,3.086,0,0,1,1.227.643,3.173,3.173,0,0,1,.833,1.187,4.728,4.728,0,0,1,.313,1.84,4.632,4.632,0,0,1-.693,2.675,3.352,3.352,0,0,1-1.84,1.348l.764.744,2.777,5.612h-1.75l-3.017-6.135-1.508-.3v6.437h-1.508V17.122Z" transform="translate(72.679 10.334)" fill="#cbcaf3"/><path d="M130.587,24.5H125.4V31h-1.508V16.92H125.4v6.195h5.19V16.92H132.1V31h-1.508Z" transform="translate(76.12 10.396)" fill="#cbcaf3"/></g></g></svg>