<svg width="115" height="48" viewBox="0 0 115 48" fill="none" xmlns="http://www.w3.org/2000/svg">
<g clip-path="url(#clip0)">
<path d="M7.3809 0.474243L0.0825195 19.9745H3.39854L5.20942 15.1533H13.2055L15.0438 19.9745H18.4696L11.1986 0.474243H7.3809ZM6.1031 12.4252L9.1957 3.92745L12.3157 12.4252H6.1031Z" fill="#272727"/>
<path d="M22.3736 0.474243H19.3633V19.9745H22.3736V0.474243Z" fill="#272727"/>
<path d="M25.6308 3.62175C26.1521 3.62175 26.5872 3.44929 26.94 3.10828C27.2927 2.76335 27.4691 2.33219 27.4691 1.8148C27.4691 1.29348 27.2927 0.862322 26.94 0.517393C26.5872 0.172465 26.1482 0 25.6308 0C25.1095 0 24.6744 0.172464 24.3216 0.513474C23.9689 0.858403 23.7925 1.28956 23.7925 1.81088C23.7925 2.33219 23.9689 2.76335 24.3216 3.10436C24.6744 3.44929 25.1095 3.62175 25.6308 3.62175Z" fill="#272727"/>
<path d="M27.1358 5.71094H24.1255V19.9745H27.1358V5.71094Z" fill="#272727"/>
<path d="M38.7495 17.6893C38.7495 18.4341 38.9533 18.9985 39.361 19.3866C39.7686 19.7785 40.4389 19.9706 41.3678 19.9706H42.9553V17.3523H42.3713C41.7402 17.3523 41.4227 17.0191 41.4227 16.3488V10.7241C41.4227 9.05436 40.9014 7.77264 39.8627 6.87896C38.824 5.9892 37.3463 5.54236 35.4335 5.54236C33.6305 5.54236 32.1724 5.93824 31.0592 6.72609C29.946 7.51394 29.3149 8.62712 29.166 10.0539H32.1175C32.2272 9.42281 32.5682 8.91717 33.1327 8.53697C33.6971 8.15676 34.4183 7.9647 35.2924 7.9647C36.2762 7.9647 37.0484 8.19204 37.605 8.64672C38.1616 9.1014 38.4399 9.72854 38.4399 10.5281V11.3905H34.8456C32.8583 11.3905 31.3453 11.7864 30.3066 12.5742C29.2679 13.3621 28.7466 14.4909 28.7466 15.9608C28.7466 17.2621 29.2287 18.2812 30.1969 19.0259C31.1611 19.7707 32.4428 20.1391 34.042 20.1391C36.1038 20.143 37.6716 19.3238 38.7495 17.6893ZM34.4614 17.803C33.6422 17.803 32.9994 17.6188 32.5251 17.2464C32.0508 16.8741 31.8157 16.3841 31.8157 15.7687C31.8157 15.0632 32.0665 14.5301 32.5682 14.1656C33.07 13.8011 33.7833 13.6208 34.7123 13.6208H38.4438V14.1225C38.4242 15.2356 38.0675 16.1293 37.3698 16.7957C36.676 17.4659 35.704 17.803 34.4614 17.803Z" fill="#272727"/>
<path d="M47.0513 12.7859C47.0513 11.3356 47.3884 10.1989 48.0665 9.37184C48.7446 8.5448 49.6775 8.13323 50.8651 8.13323C51.9783 8.13323 52.825 8.486 53.4011 9.19154C53.9773 9.89707 54.2635 10.9279 54.2635 12.2841V19.9745H57.3012V12.1195C57.3012 9.81868 56.7681 8.14499 55.6981 7.10628C54.628 6.06758 53.2522 5.54626 51.5628 5.54626C49.5952 5.54626 48.0704 6.22436 46.9925 7.58056L46.6593 5.71481H44.041V19.9784H47.0513V12.7859Z" fill="#272727"/>
<path d="M70.7378 7.85498V5.71094H59.0651V8.3567H66.6967L58.7319 17.8305V19.9745H71.0984V17.3288H62.7692L70.7378 7.85498Z" fill="#272727"/>
<path d="M84.4999 16.3527V10.7241C84.4999 9.05436 83.9785 7.77264 82.9398 6.87896C81.9011 5.9892 80.4234 5.54236 78.5106 5.54236C76.7076 5.54236 75.2495 5.93824 74.1363 6.72609C73.0231 7.51394 72.3921 8.62712 72.2431 10.0539H75.1946C75.3044 9.42281 75.6454 8.91717 76.2098 8.53697C76.7742 8.15676 77.4955 7.9647 78.3695 7.9647C79.3534 7.9647 80.1255 8.19204 80.6821 8.64672C81.2387 9.1014 81.517 9.72854 81.517 10.5281V11.3905H77.9227C75.9354 11.3905 74.4225 11.7864 73.3837 12.5742C72.345 13.3621 71.8237 14.4909 71.8237 15.9608C71.8237 17.2621 72.3058 18.2812 73.274 19.0259C74.2382 19.7707 75.52 20.1391 77.1192 20.1391C79.1809 20.1391 80.7488 19.3238 81.8267 17.6893C81.8267 18.4341 82.0305 18.9985 82.4381 19.3866C82.8458 19.7785 83.516 19.9706 84.445 19.9706H86.0324V17.3523H85.4484C84.8173 17.3562 84.4999 17.023 84.4999 16.3527ZM81.5209 14.1264C81.5013 15.2396 81.1446 16.1332 80.4469 16.7996C79.7493 17.4698 78.7811 17.803 77.5346 17.803C76.7154 17.803 76.0726 17.6188 75.5983 17.2464C75.1241 16.8741 74.8889 16.3841 74.8889 15.7687C74.8889 15.0632 75.1397 14.5301 75.6415 14.1656C76.1432 13.8011 76.8566 13.6208 77.7855 13.6208H81.517V14.1264H81.5209Z" fill="#272727"/>
<path d="M6.10289 26.4812C7.01225 25.8775 8.07055 25.5757 9.2778 25.5757C10.6144 25.5757 11.7393 25.9285 12.6487 26.634C13.5581 27.3396 14.1695 28.3156 14.487 29.5581H17.6894C17.4855 28.2019 17.0113 27.0103 16.2704 25.9794C15.5257 24.9486 14.5654 24.1529 13.3856 23.5963C12.2058 23.0397 10.8809 22.7614 9.41499 22.7614C7.5218 22.7614 5.86379 23.173 4.44096 24C3.02205 24.8271 1.92455 25.9873 1.15238 27.4807C0.384125 28.978 0 30.7105 0 32.6781C0 34.6654 0.384125 36.4057 1.1563 37.903C1.92847 39.4003 3.02205 40.5527 4.44488 41.3719C5.86379 42.1911 7.5218 42.5988 9.41891 42.5988C10.9045 42.5988 12.2332 42.3205 13.4013 41.7639C14.5732 41.2073 15.5218 40.4194 16.2587 39.3964C16.9917 38.3734 17.462 37.1779 17.6658 35.8021H14.4635C14.146 37.0485 13.5385 38.0206 12.6369 38.7261C11.7354 39.4317 10.6183 39.7844 9.28172 39.7844C8.07447 39.7844 7.01616 39.4826 6.10681 38.879C5.19745 38.2754 4.49975 37.4366 4.01764 36.3587C3.52768 35.2808 3.28858 34.0539 3.28858 32.6781C3.28858 31.2867 3.5316 30.0559 4.01372 28.9858C4.49583 27.9197 5.18961 27.0848 6.10289 26.4812Z" fill="#272727"/>
<path d="M30.2127 28.9192C29.1073 28.3077 27.8413 27.998 26.4106 27.998C24.9799 27.998 23.7139 28.3038 22.6085 28.9192C21.5032 29.5306 20.6487 30.3929 20.0451 31.4944C19.4415 32.5997 19.1396 33.8658 19.1396 35.2964C19.1396 36.7467 19.4415 38.0206 20.0451 39.1259C20.6487 40.2313 21.5032 41.0857 22.6085 41.6894C23.7139 42.293 24.9799 42.5948 26.4106 42.5948C27.8413 42.5948 29.1073 42.293 30.2127 41.6894C31.318 41.0857 32.1725 40.2313 32.7761 39.1259C33.3797 38.0206 33.6815 36.7428 33.6815 35.2964C33.6815 33.8658 33.3797 32.5997 32.7761 31.4944C32.1725 30.389 31.318 29.5306 30.2127 28.9192ZM29.4601 38.7104C28.6879 39.5924 27.6727 40.0353 26.4106 40.0353C25.1485 40.0353 24.1372 39.5963 23.3729 38.7104C22.6125 37.8285 22.2323 36.6918 22.2323 35.2964C22.2323 33.901 22.6125 32.7643 23.3729 31.8824C24.1333 31.0005 25.1445 30.5576 26.4106 30.5576C27.6727 30.5576 28.6918 31.0005 29.4601 31.8824C30.2323 32.7643 30.6164 33.901 30.6164 35.2964C30.6164 36.6918 30.2323 37.8285 29.4601 38.7104Z" fill="#272727"/>
<path d="M40.3956 28.735C39.7449 29.1152 39.2158 29.6404 38.8081 30.3107L38.475 28.1666H35.8018V42.4302H38.812V35.269C38.812 34.0265 39.0903 32.9995 39.6469 32.1921C40.2035 31.3847 41.105 30.9809 42.3476 30.9809H43.6842V28.1666H43.0139C41.9164 28.1666 41.0462 28.3548 40.3956 28.735Z" fill="#272727"/>
<path d="M56.2508 28.876C55.2278 28.292 54.0676 27.998 52.7702 27.998C50.8182 27.998 49.27 28.7585 48.1176 30.2832L47.757 28.1666H45.1387V48.0039H48.149V40.4272C48.6115 41.0975 49.2347 41.6267 50.0147 42.0147C50.7947 42.4067 51.7158 42.5987 52.7741 42.5987C54.0755 42.5987 55.2357 42.2969 56.2548 41.6933C57.2778 41.0897 58.0735 40.2352 58.6497 39.1298C59.2259 38.0245 59.512 36.7467 59.512 35.3003C59.512 33.8148 59.2219 32.5174 58.6497 31.4121C58.0696 30.3067 57.27 29.4601 56.2508 28.876ZM55.2866 38.7222C54.5145 39.612 53.5071 40.0588 52.2646 40.0588C51.0181 40.0588 50.0186 39.612 49.2543 38.7222C48.4939 37.8324 48.1137 36.6722 48.1137 35.2416C48.1137 33.8501 48.4939 32.7212 49.2543 31.855C50.0147 30.9927 51.0181 30.5576 52.2646 30.5576C53.5071 30.5576 54.5145 30.9927 55.2866 31.8667C56.0588 32.7408 56.4429 33.8814 56.4429 35.2925C56.4429 36.6918 56.0588 37.8324 55.2866 38.7222Z" fill="#272727"/>
<path d="M65.7752 28.5899C65.3323 28.3391 64.8384 28.2136 64.2897 28.2136C63.7488 28.2136 63.2588 28.3391 62.8198 28.5899C62.3769 28.8408 62.0281 29.1857 61.7733 29.6286C61.5185 30.0715 61.3892 30.5615 61.3892 31.0985C61.3892 31.6276 61.5185 32.1097 61.7733 32.5409C62.0281 32.9721 62.3769 33.317 62.8198 33.5679C63.2627 33.8187 63.7527 33.9441 64.2897 33.9441C64.8384 33.9441 65.3323 33.8187 65.7752 33.5679C66.2181 33.317 66.567 32.976 66.8217 32.5409C67.0765 32.1097 67.2059 31.6237 67.2059 31.0828C67.2059 30.5419 67.0765 30.0559 66.8217 29.6169C66.5631 29.1857 66.2142 28.8408 65.7752 28.5899ZM66.2848 32.2665C66.0888 32.6154 65.8183 32.8898 65.4695 33.0897C65.1206 33.2896 64.7287 33.3915 64.2897 33.3915C63.8624 33.3915 63.4744 33.2935 63.1256 33.0975C62.7767 32.9015 62.5063 32.6311 62.3103 32.2822C62.1143 31.9334 62.0163 31.5414 62.0163 31.1024C62.0163 30.6556 62.1143 30.2558 62.3103 29.903C62.5063 29.5502 62.7767 29.2719 63.1256 29.072C63.4744 28.8721 63.8624 28.7702 64.2897 28.7702C64.7248 28.7702 65.1206 28.8682 65.4695 29.072C65.8183 29.2719 66.0888 29.5502 66.2848 29.903C66.4807 30.2558 66.5787 30.6516 66.5787 31.0906C66.5748 31.5218 66.4768 31.9177 66.2848 32.2665Z" fill="#272727"/>
<path d="M65.4462 31.0867C65.5755 30.9299 65.6421 30.7339 65.6421 30.4987C65.6421 30.2008 65.5324 29.9578 65.309 29.7736C65.0855 29.5894 64.7877 29.4953 64.4153 29.4953H63.2002V32.6741H63.8156V31.5453H64.3055L64.9758 32.6741H65.6578L64.9052 31.4198C65.1365 31.3571 65.3168 31.2435 65.4462 31.0867ZM64.3878 31.0318H63.8156V30.0127H64.3878C64.5721 30.0127 64.721 30.0558 64.8347 30.1381C64.9444 30.2204 65.0032 30.3419 65.0032 30.5026C65.0032 30.6712 64.9444 30.8005 64.8308 30.8946C64.7093 30.9848 64.5642 31.0318 64.3878 31.0318Z" fill="#272727"/>
<path d="M114.061 12.9309L107.426 10.2028L114.046 7.43947C113.822 6.65554 113.513 5.91081 113.117 5.21703L106.497 7.98038L109.225 1.34834C108.535 0.960291 107.79 0.650639 107.006 0.435059L104.278 7.0671L101.515 0.446818C100.731 0.670237 99.986 0.97989 99.2922 1.37577L102.056 7.99606L95.4196 5.26798C95.0316 5.96176 94.7219 6.71041 94.5063 7.49434L101.138 10.2224L94.5181 12.9858C94.7415 13.7697 95.0512 14.5144 95.4431 15.2082L102.063 12.4449L99.3354 19.0769C100.029 19.4649 100.778 19.7746 101.562 19.9941L104.29 13.3621L107.053 19.9823C107.837 19.7589 108.582 19.4493 109.276 19.0573L106.516 12.437L113.148 15.1651C113.536 14.4635 113.846 13.7187 114.061 12.9309Z" fill="#FF6B00"/>
</g>
<defs>
<clipPath id="clip0">
<rect width="114.062" height="48" fill="white"/>
</clipPath>
</defs>
</svg>
